<svg width="400" height="400" viewBox="0 0 400 400" fill="none" xmlns="http://www.w3.org/2000/svg">
  <g opacity="0.1">
    <rect x="0" y="0" width="80" height="80" fill="#095786"/>
    <rect x="100" y="0" width="80" height="80" fill="#095786"/>
    <rect x="200" y="0" width="80" height="80" fill="#863809"/>
    <rect x="300" y="0" width="80" height="80" fill="#095786"/>
    
    <rect x="50" y="120" width="80" height="80" fill="#863809"/>
    <rect x="150" y="120" width="80" height="80" fill="#863809"/>
    <rect x="250" y="120" width="80" height="80" fill="#095786"/>
    <rect x="350" y="120" width="80" height="80" fill="#863809"/>
    
    <rect x="0" y="240" width="80" height="80" fill="#095786"/>
    <rect x="100" y="240" width="80" height="80" fill="#863809"/>
    <rect x="200" y="240" width="80" height="80" fill="#863809"/>
    <rect x="300" y="240" width="80" height="80" fill="#095786"/>
    
    <rect x="50" y="360" width="80" height="80" fill="#863809"/>
    <rect x="150" y="360" width="80" height="80" fill="#095786"/>
    <rect x="250" y="360" width="80" height="80" fill="#095786"/>
    <rect x="350" y="360" width="80" height="80" fill="#863809"/>
  </g>
</svg>
